<?xml version="1.0" encoding="utf-8"?>
<!-- Generator: Adobe Illustrator 16.0.0, SVG Export Plug-In . SVG Version: 6.00 Build 0)  -->
<!DOCTYPE svg PUBLIC "-//W3C//DTD SVG 1.1//EN" "http://www.w3.org/Graphics/SVG/1.1/DTD/svg11.dtd">
<svg version="1.1" xmlns="http://www.w3.org/2000/svg" xmlns:xlink="http://www.w3.org/1999/xlink" x="0px" y="0px"
	 width="529.785px" height="104.197px" viewBox="0 0 529.785 104.197" enable-background="new 0 0 529.785 104.197"
	 xml:space="preserve">
<path d="M67.834,77.989V27.056h7.909v43.267h36.853v7.667H67.834z"/>
<path d="M123.849,77.989V27.056h7.911v50.934H123.849z"/>
<path d="M321.162,31.486v46.503h-4.285V31.486h-22.81v-4.431h49.905v4.431H321.162z"/>
<path d="M385.414,77.989l-6.524-13.224h-33.621l-6.656,13.224h-4.95l25.25-50.934h6.33l25.119,50.934H385.414z M362.406,31.486
	h-0.591l-14.37,28.844h29.268L362.406,31.486z"/>
<path d="M401.076,77.989V27.056h4.283v46.502h36.854v4.432H401.076z"/>
<path d="M452.997,77.989V27.056h44.502v4.431h-40.215v17.307h27.95v4.433h-27.95v20.332h42.059v4.432H452.997z"/>
<polygon points="280.24,51.783 271.765,43.074 233.655,37.201 233.539,37.08 233.545,37.188 233.439,37.178 233.556,37.299 
	238.417,75.525 246.891,84.234 242.07,45.949 "/>
<path d="M246.916,2.687l-50.686,49.32l50.784,52.19l53.446-52.01L249.677,0L246.916,2.687z M249.529,10.896
	c4.457,4.582,35.576,36.562,40.034,41.143c-4.605,4.481-37.796,36.779-42.401,41.26c-4.458-4.582-35.576-36.562-40.035-41.143
	C211.732,47.675,244.923,15.377,249.529,10.896z"/>
<path d="M173.824,71.656c-14.108,0-22.809-7.807-22.809-19.273c0-11.048,9.031-19.206,22.346-19.206
	c8.702,0,15.19,2.493,20.186,8.101l5.279-5.124c-6.206-7.017-14.927-10.716-25.465-10.716c-8.174,0-15.625,2.531-20.899,6.824
	c-6.461,5.205-9.69,11.958-9.69,20.121c0,8.301,3.167,15.123,9.56,20.26c5.208,4.222,12.725,6.753,21.029,6.753
	c11.159,0,19.227-3.048,25.904-10.608l-5.552-5.48C188.64,69.134,182.382,71.656,173.824,71.656z"/>
<path d="M31.052,71.656c-14.108,0-22.809-7.807-22.809-19.273c0-11.048,9.031-19.206,22.346-19.206
	c8.702,0,15.19,2.493,20.186,8.101l5.279-5.124c-6.206-7.017-14.927-10.716-25.465-10.716c-8.174,0-15.625,2.531-20.899,6.824
	C3.229,37.467,0,44.22,0,52.383c0,8.301,3.167,15.123,9.56,20.26c5.208,4.222,12.725,6.753,21.029,6.753
	c11.159,0,19.227-3.048,25.904-10.608l-5.552-5.48C45.868,69.134,39.61,71.656,31.052,71.656z"/>
<g>
	<g>
		<g>
			<path d="M523.596,39.02l-2.121-2.891h-4.019v2.891h-1.581v-7.866h6.549c1.726,0,2.819,0.985,2.819,2.494
				c0,1.266-0.698,2.11-2.016,2.392l2.187,2.98H523.596z M523.623,33.673c0-0.78-0.486-1.126-1.528-1.126h-4.638v2.188h4.73
				C523.136,34.734,523.623,34.364,523.623,33.673z"/>
		</g>
		<g>
			<path fill="#6E368F" d="M523.596,39.02l-2.121-2.891h-4.019v2.891h-1.581v-7.866h6.549c1.726,0,2.819,0.985,2.819,2.494
				c0,1.266-0.698,2.11-2.016,2.392l2.187,2.98H523.596z M523.623,33.673c0-0.78-0.486-1.126-1.528-1.126h-4.638v2.188h4.73
				C523.136,34.734,523.623,34.364,523.623,33.673z"/>
		</g>
	</g>
	<path d="M510.785,35.08c0,5.238,4.262,9.5,9.5,9.5s9.5-4.262,9.5-9.5s-4.262-9.5-9.5-9.5S510.785,29.842,510.785,35.08z
		 M512.638,35.08c0-4.216,3.431-7.646,7.646-7.646s7.646,3.431,7.646,7.646s-3.431,7.646-7.646,7.646S512.638,39.296,512.638,35.08z
		"/>
</g>
</svg>
